/* XPM */
static char * Padlock_xpm[] = {
"48 48 63 1",
" 	c None",
".	c #000000000000",
"X	c #410341034103",
"o	c #104020812081",
"O	c #104010401040",
"+	c #104000001040",
"@	c #208110402081",
"#	c #514441035144",
"$	c #514451446185",
"%	c #208130C230C2",
"&	c #104020811040",
"*	c #104010400000",
"=	c #208110401040",
"-	c #2081208130C2",
";	c #71C671C671C6",
":	c #9E79A2899E79",
">	c #CF3CDF7DCF3C",
",	c #4103410330C2",
"<	c #208120812081",
"1	c #514441036185",
"2	c #618571C66185",
"3	c #DF7DDF7DCF3C",
"4	c #30C230C22081",
"5	c #30C230C24103",
"6	c #CF3CCF3CCF3C",
"7	c #9658A2899658",
"8	c #208130C22081",
"9	c #30C241034103",
"0	c #410341035144",
"q	c #410330C24103",
"w	c #514451445144",
"e	c #410351445144",
"r	c #104000000000",
"t	c #104010402081",
"y	c #618551446185",
"u	c #861792489658",
"i	c #30C230C230C2",
"p	c #514441034103",
"a	c #208120811040",
"s	c #EFBEEFBEEFBE",
"d	c #000010400000",
"f	c #861792488617",
"g	c #1040104030C2",
"h	c #861782078617",
"j	c #410351444103",
"k	c #618551445144",
"l	c #6185514471C6",
"z	c #30C2410330C2",
"x	c #71C671C68617",
"c	c #618571C671C6",
"v	c #618561856185",
"b	c #30C220814103",
"n	c #965882079658",
"m	c #30C2208130C2",
"M	c #9E7992489E79",
"N	c #410330C25144",
"B	c #9658A2899E79",
"V	c #000010401040",
"C	c #514461856185",
"Z	c #6185618571C6",
"A	c #71C682078617",
"S	c #71C6618571C6",
"D	c #71C661858617",
"                                                ",
"                   ..XoO++@#.                   ",
"                 .$%&&O*OO=O+-..                ",
"               .;:>,<OO*++O@O++1..              ",
"              .23>4<&OO&=O++OO=O#...            ",
"             .567<8-99X0##X<++O+Oq...           ",
"            .0w8o<XeX8<%51$$#Or++ty...          ",
"            uOOOOX0i<.....0y1p@+++t...          ",
"           .5a*O9X%i........#ypOrO+y...         ",
"           sd*d9ii%..........ypp+++5...         ",
"           f<dOiX-......     pyy+++g...         ",
"           ;&oii9o....        y1i+O+h...        ",
"           jO95<i%....        p1#+@+k...        ",
"           9<ei-<i....        pl#+@+#...        ",
"           weei8<z...         px#<@O#...        ",
"           cv0%%&X...         bn0-@+#...        ",
"           vceX8Oi...         mMNm<O#...        ",
"          ;$#0XXXqq555ii%%%%zz9999Xjevf.        ",
"         ;5XX0qiiiiimmmm8<88888z9zXjXewB..      ",
"         OOOOOOOOOOOO+OOVVVdVVVVVVVVOVO&...     ",
"         OOOOOOOOOOOOOOOVOVOVOVOVOVOVOO&...     ",
"         OOOOOOOOOOOOOOOOVOVOVOVOVOVOVO&...     ",
"         OOOOOOOOOOOOOOOVOVOVOVOVOVOVOO&...     ",
"         tOOOOOOOOOOOOOOVVOVOVOVOVOVOVO&...     ",
"         <@<--t@@<------o<o88<<oo<o<ooo8...     ",
"         vCvCvC$Cv$$$CCe1$11$$1$yy1llyZv...     ",
"         A;;;ccZZvvvv$wCyyylSZZZZSDDSDDA...     ",
"         v$v$CCvC$wew0ww$11$1$1$yy$yllZv...     ",
"         CvvvCCCC$vC$CewN$yll1lZyyySSSSC...     ",
"         vvvcvCvw$$$w$Cw$$$$$y$1ySZyllZv...     ",
"         $$C$$$ww0$e$wew1$1$1$1111yyll$$...     ",
"         ;vCCCw$w$e$wwCC$y$y$yy111y$$ZS;...     ",
"         c;cZCv$ewwwvw$w10$$#y1$$llSSSSc...     ",
"         $c$v$ewewwwwewe#11y#y1y$1l$$lZ$...     ",
"         $$ee00w$eew0e091001111111y0l0y$...     ",
"         v$$eee$ewe0we00N#1N11#1#111l1$v...     ",
"         c$CZC$CvCCCvv$w1$y$yyll$ySllZ1c...     ",
"         weww$Xe00w$00eX0##1$#$#1$#y1NNw...     ",
"         OOOO*O*O*O*O*O*+O+O+O+O+O+O+OO@...     ",
"         O***O*O*O*O*O*OO+O+O+O+O+O+O+O=...     ",
"         OO*O*O*O*O*O*O*+O+O+O+O+O+O+O+@...     ",
"         O*O*O*O*O*O*O*OO+O+O+O+O+O+O+O=...     ",
"         OO*O*O*O*O*O*O*+O+O+O+O+O+O+OO@...     ",
"         .OO***O*O*O***OO+O+++O+O+OOO=@....     ",
"          .................................     ",
"           ................................     ",
"           ................................     ",
"            ..............................      "};
